<svg xmlns="http://www.w3.org/2000/svg" aria-hidden="true" style="display:none">
  <symbol id="client" viewBox="0 0 32 32"><rect x="4" y="5" width="24" height="17" rx="2" fill="none" stroke="currentColor" stroke-width="2"/><path d="M11 27h10M16 22v5" fill="none" stroke="currentColor" stroke-width="2" stroke-linecap="round"/><circle cx="8" cy="9" r="1" fill="currentColor"/></symbol>
  <symbol id="mobile-app" viewBox="0 0 32 32"><rect x="9" y="3" width="14" height="26" rx="3" fill="none" stroke="currentColor" stroke-width="2"/><path d="M13 7h6" stroke="currentColor" stroke-width="2" stroke-linecap="round"/><circle cx="16" cy="25" r="1.3" fill="currentColor"/></symbol>
  <symbol id="load-balancer" viewBox="0 0 32 32"><circle cx="10" cy="16" r="3" fill="none" stroke="currentColor" stroke-width="2"/><rect x="21" y="5" width="7" height="6" rx="1.5" fill="none" stroke="currentColor" stroke-width="2"/><rect x="21" y="13" width="7" height="6" rx="1.5" fill="none" stroke="currentColor" stroke-width="2"/><rect x="21" y="21" width="7" height="6" rx="1.5" fill="none" stroke="currentColor" stroke-width="2"/><path d="M13 16h4m0 0v-8h4m-4 8h4m-4 0v8h4" fill="none" stroke="currentColor" stroke-width="2" stroke-linecap="round" stroke-linejoin="round"/></symbol>
  <symbol id="api-gateway" viewBox="0 0 32 32"><path d="M7 5h8v4H9v14h6v4H7a2 2 0 0 1-2-2V7a2 2 0 0 1 2-2Z" fill="none" stroke="currentColor" stroke-width="2"/><path d="M14 16h12m-4-4 4 4-4 4" fill="none" stroke="currentColor" stroke-width="2" stroke-linecap="round" stroke-linejoin="round"/></symbol>
  <symbol id="waf" viewBox="0 0 32 32"><path d="M16 3 27 7v8c0 7-4.5 11.7-11 14-6.5-2.3-11-7-11-14V7l11-4Z" fill="none" stroke="currentColor" stroke-width="2"/><path d="M9 11h14M9 15h14M12 11v4m8-4v4m-8 4h8" fill="none" stroke="currentColor" stroke-width="1.8" stroke-linecap="round"/></symbol>
  <symbol id="bff" viewBox="0 0 32 32"><rect x="3" y="7" width="10" height="8" rx="2" fill="none" stroke="currentColor" stroke-width="2"/><rect x="19" y="17" width="10" height="8" rx="2" fill="none" stroke="currentColor" stroke-width="2"/><rect x="12" y="12" width="8" height="8" rx="2" fill="none" stroke="currentColor" stroke-width="2"/><path d="M13 13l-2-1m9 7 2 1" stroke="currentColor" stroke-width="2" stroke-linecap="round"/></symbol>
  <symbol id="microservice" viewBox="0 0 32 32"><path d="m16 3 11 6v14l-11 6-11-6V9l11-6Z" fill="none" stroke="currentColor" stroke-width="2"/><path d="m5 9 11 6 11-6M16 15v14" fill="none" stroke="currentColor" stroke-width="2" stroke-linejoin="round"/></symbol>
  <symbol id="web-server" viewBox="0 0 32 32"><rect x="5" y="4" width="22" height="7" rx="2" fill="none" stroke="currentColor" stroke-width="2"/><rect x="5" y="13" width="22" height="7" rx="2" fill="none" stroke="currentColor" stroke-width="2"/><rect x="5" y="22" width="22" height="6" rx="2" fill="none" stroke="currentColor" stroke-width="2"/><circle cx="9" cy="7.5" r="1" fill="currentColor"/><circle cx="9" cy="16.5" r="1" fill="currentColor"/><circle cx="9" cy="25" r="1" fill="currentColor"/></symbol>
  <symbol id="service-mesh" viewBox="0 0 32 32"><circle cx="16" cy="5" r="3" fill="none" stroke="currentColor" stroke-width="2"/><circle cx="6" cy="16" r="3" fill="none" stroke="currentColor" stroke-width="2"/><circle cx="26" cy="16" r="3" fill="none" stroke="currentColor" stroke-width="2"/><circle cx="11" cy="27" r="3" fill="none" stroke="currentColor" stroke-width="2"/><circle cx="21" cy="27" r="3" fill="none" stroke="currentColor" stroke-width="2"/><path d="M14 7 8 14m10-7 6 7M9 18l2 6m12-6-2 6m-7 3h4M9 16h14M16 8v15" fill="none" stroke="currentColor" stroke-width="1.6"/></symbol>
  <symbol id="database" viewBox="0 0 32 32"><ellipse cx="16" cy="7" rx="10" ry="4" fill="none" stroke="currentColor" stroke-width="2"/><path d="M6 7v9c0 2.2 4.5 4 10 4s10-1.8 10-4V7M6 16v9c0 2.2 4.5 4 10 4s10-1.8 10-4v-9" fill="none" stroke="currentColor" stroke-width="2"/></symbol>
  <symbol id="cache" viewBox="0 0 32 32"><rect x="4" y="5" width="24" height="22" rx="3" fill="none" stroke="currentColor" stroke-width="2"/><path d="m18 8-7 9h5l-2 7 7-10h-5l2-6Z" fill="none" stroke="currentColor" stroke-width="2" stroke-linejoin="round"/></symbol>
  <symbol id="message-queue" viewBox="0 0 32 32"><rect x="4" y="6" width="13" height="5" rx="1.5" fill="none" stroke="currentColor" stroke-width="2"/><rect x="4" y="14" width="13" height="5" rx="1.5" fill="none" stroke="currentColor" stroke-width="2"/><rect x="4" y="22" width="13" height="5" rx="1.5" fill="none" stroke="currentColor" stroke-width="2"/><path d="M19 9h8m-3-3 3 3-3 3M19 17h8m-3-3 3 3-3 3M19 25h8m-3-3 3 3-3 3" fill="none" stroke="currentColor" stroke-width="2" stroke-linecap="round" stroke-linejoin="round"/></symbol>
  <symbol id="event-bus" viewBox="0 0 32 32"><path d="M5 16h22" stroke="currentColor" stroke-width="2" stroke-linecap="round"/><circle cx="8" cy="8" r="3" fill="none" stroke="currentColor" stroke-width="2"/><circle cx="16" cy="25" r="3" fill="none" stroke="currentColor" stroke-width="2"/><circle cx="24" cy="8" r="3" fill="none" stroke="currentColor" stroke-width="2"/><path d="M8 11v5m8 0v6m8-11v5" stroke="currentColor" stroke-width="2"/></symbol>
  <symbol id="stream-processor" viewBox="0 0 32 32"><path d="M4 9c5-5 8 5 13 0s8 5 11 0M4 16c5-5 8 5 13 0s8 5 11 0M4 23c5-5 8 5 13 0s8 5 11 0" fill="none" stroke="currentColor" stroke-width="2" stroke-linecap="round"/></symbol>
  <symbol id="cdn" viewBox="0 0 32 32"><circle cx="16" cy="16" r="12" fill="none" stroke="currentColor" stroke-width="2"/><path d="M4 16h24M16 4c4 4 5 8 5 12s-1 8-5 12M16 4c-4 4-5 8-5 12s1 8 5 12" fill="none" stroke="currentColor" stroke-width="1.7"/><circle cx="7" cy="8" r="2" fill="currentColor"/><circle cx="25" cy="22" r="2" fill="currentColor"/></symbol>
  <symbol id="object-storage" viewBox="0 0 32 32"><path d="M7 8h18l-2 19H9L7 8Z" fill="none" stroke="currentColor" stroke-width="2" stroke-linejoin="round"/><path d="M10 8V5h12v3M12 15h8m-9 5h10" stroke="currentColor" stroke-width="2" stroke-linecap="round"/></symbol>
  <symbol id="search" viewBox="0 0 32 32"><circle cx="13" cy="13" r="8" fill="none" stroke="currentColor" stroke-width="2"/><path d="m19 19 8 8M9 11h8m-8 4h5" stroke="currentColor" stroke-width="2" stroke-linecap="round"/></symbol>
  <symbol id="identity-provider" viewBox="0 0 32 32"><circle cx="13" cy="10" r="5" fill="none" stroke="currentColor" stroke-width="2"/><path d="M4 27c1-6 4-9 9-9s8 3 9 9" fill="none" stroke="currentColor" stroke-width="2" stroke-linecap="round"/><circle cx="24" cy="11" r="4" fill="none" stroke="currentColor" stroke-width="2"/><path d="M24 15v7m0 0h4m-4 0-3 3" stroke="currentColor" stroke-width="2" stroke-linecap="round"/></symbol>
  <symbol id="auth-service" viewBox="0 0 32 32"><rect x="7" y="14" width="18" height="14" rx="3" fill="none" stroke="currentColor" stroke-width="2"/><path d="M11 14v-4a5 5 0 0 1 10 0v4" fill="none" stroke="currentColor" stroke-width="2"/><circle cx="16" cy="21" r="2" fill="currentColor"/></symbol>
  <symbol id="kubernetes" viewBox="0 0 32 32"><circle cx="16" cy="16" r="11" fill="none" stroke="currentColor" stroke-width="2"/><circle cx="16" cy="16" r="3" fill="none" stroke="currentColor" stroke-width="2"/><path d="M16 5v5m0 12v5M5 16h5m12 0h5M8.2 8.2l3.5 3.5m8.6 8.6 3.5 3.5m0-15.6-3.5 3.5m-8.6 8.6-3.5 3.5" stroke="currentColor" stroke-width="2" stroke-linecap="round"/></symbol>
  <symbol id="external-api" viewBox="0 0 32 32"><path d="M8 20a6 6 0 0 1 1-11.9A8 8 0 0 1 24 11a5 5 0 0 1 0 10H10" fill="none" stroke="currentColor" stroke-width="2" stroke-linecap="round"/><path d="M12 25h12m-4-4 4 4-4 4" fill="none" stroke="currentColor" stroke-width="2" stroke-linecap="round" stroke-linejoin="round"/></symbol>
  <symbol id="region-az" viewBox="0 0 32 32"><rect x="4" y="5" width="24" height="22" rx="3" fill="none" stroke="currentColor" stroke-width="2"/><rect x="8" y="9" width="8" height="6" rx="1.5" fill="none" stroke="currentColor" stroke-width="1.8"/><rect x="18" y="9" width="6" height="14" rx="1.5" fill="none" stroke="currentColor" stroke-width="1.8"/><rect x="8" y="17" width="8" height="6" rx="1.5" fill="none" stroke="currentColor" stroke-width="1.8"/></symbol>
  <symbol id="monitor" viewBox="0 0 32 32"><rect x="4" y="5" width="24" height="20" rx="3" fill="none" stroke="currentColor" stroke-width="2"/><path d="M8 18h4l2-6 4 10 2-7h4" fill="none" stroke="currentColor" stroke-width="2" stroke-linecap="round" stroke-linejoin="round"/><path d="M12 29h8" stroke="currentColor" stroke-width="2" stroke-linecap="round"/></symbol>
  <symbol id="dns" viewBox="0 0 32 32"><circle cx="12" cy="16" r="8" fill="none" stroke="currentColor" stroke-width="2"/><path d="M4 16h16M12 8c3 3 4 5 4 8s-1 5-4 8M12 8c-3 3-4 5-4 8s1 5 4 8" fill="none" stroke="currentColor" stroke-width="1.5"/><path d="M21 10h7m-3-3 3 3-3 3M21 22h7m-3-3 3 3-3 3" fill="none" stroke="currentColor" stroke-width="2" stroke-linecap="round" stroke-linejoin="round"/></symbol>
  <symbol id="secrets-manager" viewBox="0 0 32 32"><rect x="5" y="8" width="22" height="19" rx="3" fill="none" stroke="currentColor" stroke-width="2"/><circle cx="13" cy="17" r="3" fill="none" stroke="currentColor" stroke-width="2"/><path d="M16 17h7m-3 0v3m-3-3v2M10 8V5h12v3" fill="none" stroke="currentColor" stroke-width="2" stroke-linecap="round"/></symbol>
</svg>